<?xml version="1.0" encoding="UTF-8"?>
<svg id="outline" xmlns="http://www.w3.org/2000/svg" viewBox="0 0 1738.1 1353.03">
  <defs>
    <style>
      .cls-1 {
        fill: #111;
        opacity: .44;
        stroke: #535353;
        stroke-miterlimit: 10;
      }
    </style>
  </defs>
  <path class="cls-1" d="M845.15,509.14c-122.33,2.61-298.54-6.75-483.45-72.37-16.62-5.9-60.97-23.44-100.29,3.64-7.92,5.46-32.88,27.89-52.86,55.84-33.71,47.16-9.33,90.07.52,121.08,32.16,101.27,201.09,400.48,585.47,388.99,331.84-9.92,550.36-287.36,582.91-329.65,46.14-59.93,50.05-62.75,30.86-137.84-7.94-31.04-18.5-62.39-31.61-101.98-17.56-53.04-50.43-48.56-115.42-19.8-139.78,61.86-280,89.17-416.13,92.08Z"/>
</svg>